<svg xmlns="http://www.w3.org/2000/svg" xmlns:xlink="http://www.w3.org/1999/xlink" viewBox="0,0,256,256" width="500px" height="500px" fill-rule="evenodd"><g transform="translate(-20.48,-20.48) scale(1.16,1.16)"><g fill="#ffffff" fill-rule="evenodd" stroke="none" stroke-width="1" stroke-linecap="butt" stroke-linejoin="miter" stroke-miterlimit="10" stroke-dasharray="" stroke-dashoffset="0" font-family="none" font-weight="none" font-size="none" text-anchor="none" style="mix-blend-mode: normal"><g transform="scale(5.12,5.12)"><path d="M19.76,25.93c0.52,0 1.666,0.2 1.666,1.682c0,1.481 -1.458,1.561 -1.666,1.561h-2.396v-3.243z"></path><path d="M20.965,21.982c0,1.124 -1.003,1.314 -1.304,1.314h-2.207v-2.519h2.006c0.201,0.001 1.505,0.08 1.505,1.205z"></path><path d="M32.594,23.018c0.747,0.013 1.161,0.187 1.502,0.498c0.342,0.312 0.546,0.81 0.615,1.434h-4.37c-0.027,-1.006 1.182,-1.951 2.253,-1.932z"></path><path d="M35.602,6.566c4.395,0 7.958,3.55 7.958,7.929v21.201c0,4.379 -3.563,7.929 -7.958,7.929h-21.279c-4.395,0 -7.958,-3.55 -7.958,-7.929v-21.201c0,-4.379 3.563,-7.929 7.958,-7.929zM29.476,17.411c-0.472,0 -0.853,0.372 -0.853,0.83c0,0.458 0.382,0.83 0.853,0.83h5.12c0.472,0 0.853,-0.372 0.853,-0.83c0,-0.458 -0.382,-0.83 -0.853,-0.83zM20.399,31.711c0.533,-0.001 4.533,-0.16 4.533,-3.85c0,-2.381 -1.467,-3.161 -2.266,-3.435c0.532,-0.274 1.425,-0.966 1.425,-2.816c0,-3.48 -3.292,-3.367 -3.958,-3.367h-6.133v13.469h6.399zM37.572,27.488c0.106,-2.956 -0.53,-6.756 -5.086,-6.756c-1.289,0 -5.086,0.585 -5.086,5.489c0,4.537 3.51,5.489 5.229,5.489c2.607,0 4.326,-1.8 4.803,-3.377h-2.697c-0.384,0.416 -0.975,0.828 -1.815,0.828c-1.695,0 -2.129,-1.674 -2.129,-1.674h4.51v0.001l2.271,0c0,0.001 0,0.001 0,0z"></path></g></g></g></svg>